<svg width="128" height="128" viewBox="0 0 128 128" fill="none" xmlns="http://www.w3.org/2000/svg">
<path d="M104 6H24C14.0589 6 6 14.0589 6 24V104C6 113.941 14.0589 122 24 122H104C113.941 122 122 113.941 122 104V24C122 14.0589 113.941 6 104 6Z" fill="url(#paint0_linear_52_2)"/>
<g opacity="0.95">
<path opacity="0.95" d="M74.827 32.3569C78.0567 27.8902 83.4396 25 89.3608 25C91.5277 25 96.5 25.5 99.4538 27.6275C102.21 29.6124 102.5 31.1393 103.491 34.1961C104.019 35.8243 103.491 46.151 99.4538 48.1216C112.911 56.5294 110.893 65.0686 110.893 70.9804C110.893 82.5412 101.203 92 89.3608 92H36.8774C24.2275 92 14 82.0157 14 69.6667C14 60.2078 20.1904 52.0627 37.2811 48.1216C37.012 47.0706 36.8774 45.8882 36.8774 44.7059C36.8774 33.802 45.8938 25 57.0633 25C64.5994 25 70.5206 28.9412 74.827 32.3569Z" fill="white"/>
</g>
<path d="M43.5 55V88Z" fill="black"/>
<path d="M43.5 55V88" stroke="#0B264E" stroke-width="3" stroke-linecap="round"/>
<path d="M30 71.5L43.5 88L57 71.5" stroke="#0B264E" stroke-width="3" stroke-linecap="round" stroke-linejoin="round"/>
<path d="M79.5 82L79.5 49Z" fill="black"/>
<path d="M79.5 82L79.5 49" stroke="#0B264E" stroke-width="3" stroke-linecap="round"/>
<path d="M93 65.5L79.5 49L66 65.5" stroke="#0B264E" stroke-width="3" stroke-linecap="round" stroke-linejoin="round"/>
<path d="M63.3359 112V95.1953H67.4961C72.8086 95.1953 75.4648 97.9258 75.4648 103.387C75.4648 106.004 74.7383 108.094 73.2852 109.656C71.8398 111.219 69.9102 112 67.4961 112H63.3359ZM67.1211 98.2773V108.93H67.5547C68.7812 108.93 69.7422 108.438 70.4375 107.453C71.1328 106.469 71.4805 105.129 71.4805 103.434C71.4805 101.832 71.1328 100.574 70.4375 99.6602C69.75 98.7383 68.7852 98.2773 67.543 98.2773H67.1211ZM90.8516 112H86.8438L85.7656 108.262H81.4297L80.3633 112H76.3789L81.4414 95.1953H85.9297L90.8516 112ZM85.25 105.355L83.9141 100.293C83.7812 99.6367 83.6875 99.0938 83.6328 98.6641H83.5391C83.5 99 83.4023 99.5273 83.2461 100.246L81.8867 105.355H85.25ZM105.23 95.1953L100.145 112H95.8555L90.8398 95.1953H94.8008L97.7188 105.953C97.9062 106.82 98.0195 107.496 98.0586 107.98H98.1289C98.1836 107.457 98.3047 106.766 98.4922 105.906L101.387 95.1953H105.23Z" fill="white"/>
<path d="M33.6016 95.1953L31.7852 112H28.3047L26.6641 101.723C26.5156 100.551 26.4258 99.6758 26.3945 99.0977H26.3477C26.3008 99.6758 26.1992 100.543 26.043 101.699L24.2617 112H20.8047L18.8125 95.1953H21.8008L22.4453 102.039C22.5938 104.367 22.6875 106.242 22.7266 107.664H22.7852C22.8477 106.711 22.9297 105.945 23.0312 105.367L24.8125 95.1953H27.9883L29.6172 105.461C29.6641 105.977 29.7188 106.703 29.7812 107.641H29.8281C29.8906 106.227 29.9961 104.375 30.1445 102.086L30.6484 95.1953H33.6016ZM46.1172 112H35.3359V95.1953H45.7305V98.2773H39.1211V102.016H45.3203V105.086H39.1211V108.93H46.1172V112ZM49.3984 112V95.1953H54.6953C56.5703 95.1953 58.0117 95.5391 59.0195 96.2266C60.0273 96.9141 60.5312 97.8828 60.5312 99.1328C60.5312 100.039 60.2227 100.832 59.6055 101.512C58.9961 102.191 58.2148 102.664 57.2617 102.93V102.977C58.457 103.125 59.4102 103.566 60.1211 104.301C60.8398 105.035 61.1992 105.93 61.1992 106.984C61.1992 108.523 60.6484 109.746 59.5469 110.652C58.4453 111.551 56.9414 112 55.0352 112H49.3984ZM53.1836 97.9844V101.969H54.0273C54.8086 101.969 55.4219 101.781 55.8672 101.406C56.3203 101.023 56.5469 100.5 56.5469 99.8359C56.5469 98.6016 55.625 97.9844 53.7812 97.9844H53.1836ZM53.1836 104.781V109.211H54.4141C55.2891 109.211 55.9727 109.008 56.4648 108.602C56.9648 108.195 57.2148 107.641 57.2148 106.938C57.2148 106.266 56.9688 105.738 56.4766 105.355C55.9922 104.973 55.3125 104.781 54.4375 104.781H53.1836Z" fill="white"/>
<defs>
<linearGradient id="paint0_linear_52_2" x1="6" y1="6" x2="122" y2="122" gradientUnits="userSpaceOnUse">
<stop stop-color="#2D9CDB"/>
<stop offset="1" stop-color="#2B6FD6"/>
</linearGradient>
</defs>
</svg>
