<?xml version="1.0" encoding="UTF-8"?>
<svg xmlns="http://www.w3.org/2000/svg" viewBox="0 0 60 60" width="60" height="60">
  <path fill="#4559E9" d="M40,5H20c-8.284,0-15,6.716-15,15v20c0,8.284,6.716,15,15,15h20c8.284,0,15-6.716,15-15V20C55,11.716,48.284,5,40,5z"/>
  <path fill="#FFFFFF" d="M20,15h-5c-0.553,0-1,0.447-1,1v28c0,0.553,0.447,1,1,1h30c0.553,0,1-0.447,1-1V16c0-0.553-0.447-1-1-1h-5 M30,45v-5 M25,45v-5 M35,45v-5"/>
  <path fill="#FFFFFF" d="M45,25H15v-5c0-2.761,2.239-5,5-5h20c2.761,0,5,2.239,5,5V25z"/>
  <path fill="#FFFFFF" d="M40,35H20c-0.553,0-1-0.447-1-1v-5c0-0.553,0.447-1,1-1h20c0.553,0,1,0.447,1,1v5C41,34.553,40.553,35,40,35z"/>
  <circle fill="#FFFFFF" cx="30" cy="30" r="2"/>
</svg> 